<?xml version="1.0" standalone="no"?>
<!DOCTYPE svg PUBLIC "-//W3C//DTD SVG 20010904//EN"
 "http://www.w3.org/TR/2001/REC-SVG-20010904/DTD/svg10.dtd">
<svg version="1.0" xmlns="http://www.w3.org/2000/svg"
 width="2000.000000pt" height="2000.000000pt" viewBox="0 0 2000.000000 2000.000000"
 preserveAspectRatio="xMidYMid meet">
<metadata>
Created by potrace 1.16, written by Peter Selinger 2001-2019
</metadata>
<g transform="translate(0.000000,2000.000000) scale(0.100000,-0.100000)"
fill="#000000" stroke="none">
<path d="M0 10000 l0 -10000 10000 0 10000 0 0 10000 0 10000 -10000 0 -10000
0 0 -10000z m10785 5535 c91 -24 234 -97 313 -160 90 -72 172 -175 222 -279
49 -103 1709 -4500 1744 -4621 39 -134 56 -245 56 -371 0 -170 -25 -268 -102
-399 -54 -91 -193 -230 -283 -283 -58 -34 -272 -125 -592 -251 l-53 -21 98 98
c54 53 119 129 145 169 141 212 208 469 186 714 -11 133 -29 203 -103 401
-206 555 -1691 4480 -1715 4533 -65 143 -181 293 -299 387 -42 33 -78 64 -80
68 -3 7 22 14 128 34 51 10 276 -3 335 -19z m-922 -99 c262 -50 494 -235 602
-480 47 -106 1286 -3398 1307 -3473 31 -108 30 -293 -1 -408 -65 -243 -221
-437 -437 -544 -86 -42 -3315 -1335 -3404 -1362 -107 -33 -319 -34 -433 -1
-300 86 -533 330 -601 630 -30 130 -18 342 26 457 13 36 481 1131 1373 3215
444 1036 671 1557 702 1604 115 178 293 305 501 356 95 23 260 26 365 6z
m-1845 -7038 c8 -8 12 -50 12 -125 l0 -113 46 33 c112 79 267 14 305 -127 17
-63 6 -157 -25 -211 -51 -87 -151 -125 -240 -91 -25 9 -50 24 -56 32 -17 20
-30 18 -30 -6 0 -27 -34 -44 -60 -30 -19 10 -20 21 -20 320 0 284 1 310 18
319 23 14 36 13 50 -1z m1815 0 c16 -12 17 -40 15 -317 -3 -277 -5 -305 -20
-315 -23 -14 -50 2 -58 33 l-5 23 -19 -21 c-10 -11 -38 -28 -62 -37 -89 -34
-189 4 -241 93 -25 42 -28 58 -28 133 0 75 3 91 28 133 52 89 152 127 241 93
25 -9 50 -24 56 -32 25 -29 30 -12 30 94 0 127 15 155 63 120z m-952 -178 c23
-13 25 -56 3 -68 -9 -5 -36 -7 -61 -4 -36 4 -48 1 -70 -19 -44 -41 -53 -77
-53 -217 0 -142 -7 -160 -55 -148 l-25 6 2 217 c3 193 5 217 21 227 25 16 51
-4 55 -43 l3 -31 27 31 c42 51 109 72 153 49z m1477 -5 c20 -9 47 -26 59 -37
22 -21 23 -21 23 -2 0 26 19 44 45 44 42 0 45 -14 45 -235 0 -157 -4 -224 -15
-261 -26 -89 -101 -137 -217 -137 -81 0 -161 34 -166 71 -5 33 20 37 101 17
59 -14 80 -15 114 -6 57 15 93 60 93 114 l0 40 -23 -21 c-73 -69 -188 -67
-267 4 -97 88 -100 272 -6 363 59 57 143 75 214 46z m723 -19 c61 -41 94 -98
94 -165 l0 -56 -169 -3 -168 -2 6 -32 c19 -96 137 -137 235 -81 53 29 81 26
81 -10 0 -52 -102 -102 -190 -94 -108 9 -177 65 -206 165 -37 125 30 266 143
302 48 16 131 4 174 -24z m-1901 5 c6 -12 10 -98 10 -211 0 -113 -4 -199 -10
-211 -6 -11 -21 -19 -35 -19 -14 0 -29 8 -35 19 -15 29 -13 414 2 429 18 18
56 14 68 -7z"/>
<path d="M9630 14851 c-47 -15 -87 -40 -117 -74 -21 -24 -325 -722 -1023
-2353 -546 -1276 -999 -2336 -1006 -2358 -17 -46 -18 -124 -3 -163 43 -115
166 -187 279 -162 45 10 3237 1282 3309 1318 44 23 98 81 117 127 8 19 14 60
14 93 0 54 -55 205 -626 1717 -344 913 -636 1684 -650 1714 -14 30 -37 67 -51
82 -50 53 -169 81 -243 59z"/>
<path d="M8099 8127 c-43 -29 -69 -80 -69 -137 0 -163 195 -221 260 -77 66
145 -69 296 -191 214z"/>
<path d="M9562 8130 c-19 -12 -41 -38 -52 -63 -65 -142 64 -292 187 -217 43
26 63 58 70 117 15 131 -103 225 -205 163z"/>
<path d="M10232 8131 c-48 -31 -72 -77 -72 -139 0 -90 47 -151 123 -159 92
-11 159 53 160 150 1 96 -48 157 -132 164 -34 3 -54 -1 -79 -16z"/>
<path d="M10915 8140 c-26 -10 -61 -49 -70 -77 l-6 -23 125 0 c114 0 126 2
126 18 0 63 -104 112 -175 82z"/>
</g>
</svg>
